# xmcd
#
# Track frame offsets:
# 150
# 13952
# 30004
# 40731
# 73508
# 94285
#
# Disc length: 1402 seconds
#
# Revision: 0
# Processed by: cddbd v1.4PL0 Copyright (c) Steve Scherf et al.
# Submitted via: MacMP3 Pro 5.0 (http://mp3.act2.co.jp/)
#
DISCID=41057806
DTITLE=Original - Chapel Wedding
DYEAR=1900
DGENRE=
TTITLE0=M-1
TTITLE1=M-2
TTITLE2=M-3
TTITLE3=M-4
TTITLE4=M-5
TTITLE5=M-6
EXTD=
EXTT0=
EXTT1=
EXTT2=
EXTT3=
EXTT4=
EXTT5=
PLAYORDER=
